<?xml version="1.0" encoding="utf-8"?>
<!-- Generator: Adobe Illustrator 21.0.2, SVG Export Plug-In . SVG Version: 6.00 Build 0)  -->
<svg version="1.1" id="Layer_1" xmlns="http://www.w3.org/2000/svg" xmlns:xlink="http://www.w3.org/1999/xlink" x="0px" y="0px"
	 viewBox="0 0 443 358" style="enable-background:new 0 0 443 358;" xml:space="preserve">
<style type="text/css">
	.st0{fill:#D7F1ED;}
	.st1{fill:none;stroke:#FFFFFF;stroke-width:1.5;}
</style>
<path class="st0" d="M53.3,41.7C57.3,17.6,78.2,0,102.6,0h289.7c27.6,0,50,22.4,50,50v258c0,27.6-22.4,50-50,50H59.4
	c-30.9,0-54.4-27.8-49.3-58.3L53.3,41.7z"/>
<path class="st1" d="M410,94c25.7,29.2-4.7,57.4-58.1,58.1C245.6,145.1,221.6,51,229.7,29.9s32-21.7,67.4,21.3S377.9,57.6,410,94z"
	/>
<ellipse transform="matrix(0.3538 -0.9353 0.9353 0.3538 142.1441 324.1643)" class="st1" cx="305.7" cy="59.2" rx="10" ry="16.8"/>
</svg>
