<?xml version="1.0" encoding="utf-8"?>
<!-- Generator: Adobe Illustrator 21.0.2, SVG Export Plug-In . SVG Version: 6.00 Build 0)  -->
<svg version="1.1" id="Layer_1" xmlns="http://www.w3.org/2000/svg" xmlns:xlink="http://www.w3.org/1999/xlink" x="0px" y="0px"
	 viewBox="0 0 443 358" style="enable-background:new 0 0 443 358;" xml:space="preserve">
<style type="text/css">
	.st0{fill:#D7ECF8;}
	.st1{fill:none;stroke:#FFFFFF;stroke-width:1.5;}
</style>
<path class="st0" d="M53.3,41.7C57.3,17.6,78.2,0,102.6,0h289.7c27.6,0,50,22.4,50,50v258c0,27.6-22.4,50-50,50H59.4
	c-30.9,0-54.4-27.8-49.3-58.3L53.3,41.7z"/>
<ellipse transform="matrix(0.3538 -0.9353 0.9353 0.3538 -38.9527 555.6484)" class="st1" cx="382.7" cy="306" rx="18.3" ry="30.9"/>
<path class="st1" d="M108.7,247.7c-60.5,12.2-75.2-51.9-33.8-126c94-140.6,242.4-98.8,265.1-71c22.6,27.8,4.4,61.1-82.8,75.7
	S184.4,232.5,108.7,247.7z"/>
</svg>
